Wavefont-wmax,rmax,amin.ufo
<glyph name="_2" format="2">
	<unicode hex="0102"/>
	<unicode hex="0062"/>
	<advance width="404"/>
	<outline>
		<component base="cap"/>
		<component base="cap" yOffset="-384"/>
		<contour>
			<point x="0" y="202" type="line"/>
			<point x="0" y="-182" type="line"/>
			<point x="404" y="-182" type="line"/>
			<point x="404" y="202" type="line"/>
		</contour>
	</outline>
</glyph>
<glyph name="_4" format="2">
	<unicode hex="0104"/>
	<unicode hex="0063"/>
	<advance width="200"/>
	<outline>
		<component base="cap"/>
		<component base="cap" yOffset="-160"/>
		<contour>
			<point x="0" y="100" type="line"/>
			<point x="0" y="-60" type="line"/>
			<point x="200" y="-60" type="line"/>
			<point x="200" y="100" type="line"/>
		</contour>
	</outline>
</glyph>
<glyph name="_5" format="2">
	<unicode hex="0105"/>
	<advance width="404"/>
	<outline>
		<component base="cap"/>
		<component base="cap" yOffset="-354"/>
		<contour>
			<point x="0" y="202" type="line"/>
			<point x="0" y="-152" type="line"/>
			<point x="404" y="-152" type="line"/>
			<point x="404" y="202" type="line"/>
		</contour>
	</outline>
</glyph>
<glyph name="_6" format="2">
	<unicode hex="0106"/>
	<unicode hex="0064"/>
	<advance width="404"/>
	<outline>
		<component base="cap"/>
		<component base="cap" yOffset="-344"/>
		<contour>
			<point x="0" y="202" type="line"/>
			<point x="0" y="-142" type="line"/>
			<point x="404" y="-142" type="line"/>
			<point x="404" y="202" type="line"/>
		</contour>
	</outline>
</glyph>
<glyph name="_8" format="2">
	<unicode hex="0108"/>
	<unicode hex="0065"/>
	<advance width="250"/>
	<outline>
		<component base="cap"/>
		<component base="cap" yOffset="-170"/>
		<contour>
			<point x="0" y="125" type="line"/>
			<point x="0" y="-45" type="line"/>
			<point x="250" y="-45" type="line"/>
			<point x="250" y="125" type="line"/>
		</contour>
	</outline>
</glyph>
<glyph name="_9" format="2">
	<unicode hex="0109"/>
	<advance width="404"/>
	<outline>
		<component base="cap"/>
		<component base="cap" yOffset="-314"/>
		<contour>
			<point x="0" y="202" type="line"/>
			<point x="0" y="-112" type="line"/>
			<point x="404" y="-112" type="line"/>
			<point x="404" y="202" type="line"/>
		</contour>
	</outline>
</glyph>
<glyph name="_10" format="2">
	<unicode hex="010A"/>
	<unicode hex="0031"/>
	<unicode hex="0066"/>
	<advance width="250"/>
	<outline>
		<component base="cap"/>
		<component base="cap" yOffset="-150"/>
		<contour>
			<point x="0" y="125" type="line"/>
			<point x="0" y="-25" type="line"/>
			<point x="250" y="-25" type="line"/>
			<point x="250" y="125" type="line"/>
		</contour>
	</outline>
</glyph>
<glyph name="_12" format="2">
	<unicode hex="010C"/>
	<unicode hex="0067"/>
	<advance width="404"/>
	<outline>
		<component base="cap"/>
		<component base="cap" yOffset="-284"/>
		<contour>
			<point x="0" y="202" type="line"/>
			<point x="0" y="-82" type="line"/>
			<point x="404" y="-82" type="line"/>
			<point x="404" y="202" type="line"/>
		</contour>
	</outline>
</glyph>
<glyph name="_13" format="2">
	<unicode hex="010D"/>
	<advance width="200"/>
	<outline>
		<component base="cap"/>
		<component base="cap" yOffset="-70"/>
		<contour>
			<point x="0" y="100" type="line"/>
			<point x="0" y="30" type="line"/>
			<point x="200" y="30" type="line"/>
			<point x="200" y="100" type="line"/>
		</contour>
	</outline>
</glyph>
<glyph name="_14" format="2">
	<unicode hex="010E"/>
	<unicode hex="2582"/>
	<unicode hex="0068"/>
	<advance width="404"/>
	<outline>
		<component base="cap"/>
		<component base="cap" yOffset="-264"/>
		<contour>
			<point x="0" y="202" type="line"/>
			<point x="0" y="-62" type="line"/>
			<point x="404" y="-62" type="line"/>
			<point x="404" y="202" type="line"/>
		</contour>
	</outline>
</glyph>
<glyph name="_15" format="2">
	<unicode hex="010F"/>
	<advance width="200"/>
	<outline>
		<component base="cap"/>
		<component base="cap" yOffset="-50"/>
		<contour>
			<point x="0" y="100" type="line"/>
			<point x="0" y="50" type="line"/>
			<point x="200" y="50" type="line"/>
			<point x="200" y="100" type="line"/>
		</contour>
	</outline>
</glyph>
<glyph name="_16" format="2">
	<unicode hex="0110"/>
	<unicode hex="0069"/>
	<advance width="250"/>
	<outline>
		<component base="cap"/>
		<component base="cap" yOffset="-90"/>
		<contour>
			<point x="0" y="125" type="line"/>
			<point x="0" y="35" type="line"/>
			<point x="250" y="35" type="line"/>
			<point x="250" y="125" type="line"/>
		</contour>
	</outline>
</glyph>
<glyph name="_17" format="2">
	<unicode hex="0111"/>
	<advance width="404"/>
	<outline>
		<component base="cap"/>
		<component base="cap" yOffset="-234"/>
		<contour>
			<point x="0" y="202" type="line"/>
			<point x="0" y="-32" type="line"/>
			<point x="404" y="-32" type="line"/>
			<point x="404" y="202" type="line"/>
		</contour>
	</outline>
</glyph>
<glyph name="_18" format="2">
	<unicode hex="0112"/>
	<unicode hex="006A"/>
	<advance width="250"/>
	<outline>
		<component base="cap"/>
		<component base="cap" yOffset="-70"/>
		<contour>
			<point x="0" y="125" type="line"/>
			<point x="0" y="55" type="line"/>
			<point x="250" y="55" type="line"/>
			<point x="250" y="125" type="line"/>
		</contour>
	</outline>
</glyph>
<glyph name="_19" format="2">
	<unicode hex="0113"/>
	<advance width="404"/>
	<outline>
		<component base="cap"/>
		<component base="cap" yOffset="-214"/>
		<contour>
			<point x="0" y="202" type="line"/>
			<point x="0" y="-12" type="line"/>
			<point x="404" y="-12" type="line"/>
			<point x="404" y="202" type="line"/>
		</contour>
	</outline>
</glyph>
<glyph name="_20" format="2">
	<unicode hex="0114"/>
	<unicode hex="0032"/>
	<unicode hex="006B"/>
	<advance width="200"/>
	<outline>
		<component base="cap"/>
		<component base="cap"/>
		<contour>
			<point x="0" y="100" type="line"/>
			<point x="0" y="100" type="line"/>
			<point x="200" y="100" type="line"/>
			<point x="200" y="100" type="line"/>
		</contour>
	</outline>
</glyph>
<glyph name="_21" format="2">
	<unicode hex="0115"/>
	<advance width="404"/>
	<outline>
		<component base="cap"/>
		<component base="cap" yOffset="-194"/>
		<contour>
			<point x="0" y="202" type="line"/>
			<point x="0" y="8" type="line"/>
			<point x="404" y="8" type="line"/>
			<point x="404" y="202" type="line"/>
		</contour>
	</outline>
</glyph>
<glyph name="_22" format="2">
	<unicode hex="0116"/>
	<unicode hex="006C"/>
	<advance width="250"/>
	<outline>
		<component base="cap"/>
		<component base="cap" yOffset="-30"/>
		<contour>
			<point x="0" y="125" type="line"/>
			<point x="0" y="95" type="line"/>
			<point x="250" y="95" type="line"/>
			<point x="250" y="125" type="line"/>
		</contour>
	</outline>
</glyph>
<glyph name="_23" format="2">
	<unicode hex="0117"/>
	<advance width="404"/>
	<outline>
		<component base="cap"/>
		<component base="cap" yOffset="-174"/>
		<contour>
			<point x="0" y="202" type="line"/>
			<point x="0" y="28" type="line"/>
			<point x="404" y="28" type="line"/>
			<point x="404" y="202" type="line"/>
		</contour>
	</outline>
</glyph>
<glyph name="_24" format="2">
	<unicode hex="0118"/>
	<unicode hex="006D"/>
	<advance width="404"/>
	<outline>
		<component base="cap"/>
		<component base="cap" yOffset="-164"/>
		<contour>
			<point x="0" y="202" type="line"/>
			<point x="0" y="38" type="line"/>
			<point x="404" y="38" type="line"/>
			<point x="404" y="202" type="line"/>
		</contour>
	</outline>
</glyph>
<glyph name="_25" format="2">
	<unicode hex="0119"/>
	<advance width="200"/>
	<outline>
		<component base="cap"/>
		<component base="cap" yOffset="50"/>
		<contour>
			<point x="0" y="100" type="line"/>
			<point x="0" y="150" type="line"/>
			<point x="200" y="150" type="line"/>
			<point x="200" y="100" type="line"/>
		</contour>
	</outline>
</glyph>
<glyph name="_26" format="2">
	<unicode hex="011A"/>
	<unicode hex="006E"/>
	<advance width="404"/>
	<outline>
		<component base="cap"/>
		<component base="cap" yOffset="-144"/>
		<contour>
			<point x="0" y="202" type="line"/>
			<point x="0" y="58" type="line"/>
			<point x="404" y="58" type="line"/>
			<point x="404" y="202" type="line"/>
		</contour>
	</outline>
</glyph>
<glyph name="_27" format="2">
	<unicode hex="011B"/>
	<advance width="200"/>
	<outline>
		<component base="cap"/>
		<component base="cap" yOffset="70"/>
		<contour>
			<point x="0" y="100" type="line"/>
			<point x="0" y="170" type="line"/>
			<point x="200" y="170" type="line"/>
			<point x="200" y="100" type="line"/>
		</contour>
	</outline>
</glyph>
<glyph name="_28" format="2">
	<unicode hex="011C"/>
	<unicode hex="2583"/>
	<unicode hex="006F"/>
	<advance width="404"/>
	<outline>
		<component base="cap"/>
		<component base="cap" yOffset="-124"/>
		<contour>
			<point x="0" y="202" type="line"/>
			<point x="0" y="78" type="line"/>
			<point x="404" y="78" type="line"/>
			<point x="404" y="202" type="line"/>
		</contour>
	</outline>
</glyph>
<glyph name="_29" format="2">
	<unicode hex="011D"/>
	<advance width="404"/>
	<outline>
		<component base="cap"/>
		<component base="cap" yOffset="-114"/>
		<contour>
			<point x="0" y="202" type="line"/>
			<point x="0" y="88" type="line"/>
			<point x="404" y="88" type="line"/>
			<point x="404" y="202" type="line"/>
		</contour>
	</outline>
</glyph>
<glyph name="_30" format="2">
	<unicode hex="011E"/>
	<unicode hex="0033"/>
	<unicode hex="0070"/>
	<advance width="250"/>
	<outline>
		<component base="cap"/>
		<component base="cap" yOffset="50"/>
		<contour>
			<point x="0" y="125" type="line"/>
			<point x="0" y="175" type="line"/>
			<point x="250" y="175" type="line"/>
			<point x="250" y="125" type="line"/>
		</contour>
	</outline>
</glyph>
<glyph name="_31" format="2">
	<unicode hex="011F"/>
	<advance width="404"/>
	<outline>
		<component base="cap"/>
		<component base="cap" yOffset="-94"/>
		<contour>
			<point x="0" y="202" type="line"/>
			<point x="0" y="108" type="line"/>
			<point x="404" y="108" type="line"/>
			<point x="404" y="202" type="line"/>
		</contour>
	</outline>
</glyph>
<glyph name="_32" format="2">
	<unicode hex="0120"/>
	<unicode hex="0071"/>
	<advance width="250"/>
	<outline>
		<component base="cap"/>
		<component base="cap" yOffset="70"/>
		<contour>
			<point x="0" y="125" type="line"/>
			<point x="0" y="195" type="line"/>
			<point x="250" y="195" type="line"/>
			<point x="250" y="125" type="line"/>
		</contour>
	</outline>
</glyph>
<glyph name="_33" format="2">
	<unicode hex="0121"/>
	<advance width="250"/>
	<outline>
		<component base="cap"/>
		<component base="cap" yOffset="80"/>
		<contour>
			<point x="0" y="125" type="line"/>
			<point x="0" y="205" type="line"/>
			<point x="250" y="205" type="line"/>
			<point x="250" y="125" type="line"/>
		</contour>
	</outline>
</glyph>
<glyph name="_34" format="2">
	<unicode hex="0122"/>
	<unicode hex="0072"/>
	<advance width="250"/>
	<outline>
		<component base="cap"/>
		<component base="cap" yOffset="90"/>
		<contour>
			<point x="0" y="125" type="line"/>
			<point x="0" y="215" type="line"/>
			<point x="250" y="215" type="line"/>
			<point x="250" y="125" type="line"/>
		</contour>
	</outline>
</glyph>
<glyph name="_35" format="2">
	<unicode hex="0123"/>
	<advance width="200"/>
	<outline>
		<component base="cap"/>
		<component base="cap" yOffset="150"/>
		<contour>
			<point x="0" y="100" type="line"/>
			<point x="0" y="250" type="line"/>
			<point x="200" y="250" type="line"/>
			<point x="200" y="100" type="line"/>
		</contour>
	</outline>
</glyph>
<glyph name="_36" format="2">
	<unicode hex="0124"/>
	<unicode hex="0073"/>
	<advance width="250"/>
	<outline>
		<component base="cap"/>
		<component base="cap" yOffset="110"/>
		<contour>
			<point x="0" y="125" type="line"/>
			<point x="0" y="235" type="line"/>
			<point x="250" y="235" type="line"/>
			<point x="250" y="125" type="line"/>
		</contour>
	</outline>
</glyph>
<glyph name="_37" format="2">
	<unicode hex="0125"/>
	<advance width="200"/>
	<outline>
		<component base="cap"/>
		<component base="cap" yOffset="170"/>
		<contour>
			<point x="0" y="100" type="line"/>
			<point x="0" y="270" type="line"/>
			<point x="200" y="270" type="line"/>
			<point x="200" y="100" type="line"/>
		</contour>
	</outline>
</glyph>
<glyph name="_38" format="2">
	<unicode hex="0126"/>
	<unicode hex="0074"/>
	<advance width="200"/>
	<outline>
		<component base="cap"/>
		<component base="cap" yOffset="180"/>
		<contour>
			<point x="0" y="100" type="line"/>
			<point x="0" y="280" type="line"/>
			<point x="200" y="280" type="line"/>
			<point x="200" y="100" type="line"/>
		</contour>
	</outline>
</glyph>
<glyph name="_39" format="2">
	<unicode hex="0127"/>
	<advance width="200"/>
	<outline>
		<component base="cap"/>
		<component base="cap" yOffset="190"/>
		<contour>
			<point x="0" y="100" type="line"/>
			<point x="0" y="290" type="line"/>
			<point x="200" y="290" type="line"/>
			<point x="200" y="100" type="line"/>
		</contour>
	</outline>
</glyph>
<glyph name="_40" format="2">
	<unicode hex="0128"/>
	<unicode hex="0034"/>
	<unicode hex="0075"/>
	<advance width="200"/>
	<outline>
		<component base="cap"/>
		<component base="cap" yOffset="200"/>
		<contour>
			<point x="0" y="100" type="line"/>
			<point x="0" y="300" type="line"/>
			<point x="200" y="300" type="line"/>
			<point x="200" y="100" type="line"/>
		</contour>
	</outline>
</glyph>
<glyph name="_41" format="2">
	<unicode hex="0129"/>
	<advance width="200"/>
	<outline>
		<component base="cap"/>
		<component base="cap" yOffset="210"/>
		<contour>
			<point x="0" y="100" type="line"/>
			<point x="0" y="310" type="line"/>
			<point x="200" y="310" type="line"/>
			<point x="200" y="100" type="line"/>
		</contour>
	</outline>
</glyph>
<glyph name="_42" format="2">
	<unicode hex="012A"/>
	<unicode hex="2584"/>
	<unicode hex="0076"/>
	<advance width="250"/>
	<outline>
		<component base="cap"/>
		<component base="cap" yOffset="170"/>
		<contour>
			<point x="0" y="125" type="line"/>
			<point x="0" y="295" type="line"/>
			<point x="250" y="295" type="line"/>
			<point x="250" y="125" type="line"/>
		</contour>
	</outline>
</glyph>
<glyph name="_43" format="2">
	<unicode hex="012B"/>
	<advance width="250"/>
	<outline>
		<component base="cap"/>
		<component base="cap" yOffset="180"/>
		<contour>
			<point x="0" y="125" type="line"/>
			<point x="0" y="305" type="line"/>
			<point x="250" y="305" type="line"/>
			<point x="250" y="125" type="line"/>
		</contour>
	</outline>
</glyph>
<glyph name="_44" format="2">
	<unicode hex="012C"/>
	<unicode hex="0077"/>
	<advance width="250"/>
	<outline>
		<component base="cap"/>
		<component base="cap" yOffset="190"/>
		<contour>
			<point x="0" y="125" type="line"/>
			<point x="0" y="315" type="line"/>
			<point x="250" y="315" type="line"/>
			<point x="250" y="125" type="line"/>
		</contour>
	</outline>
</glyph>
<glyph name="_45" format="2">
	<unicode hex="012D"/>
	<advance width="200"/>
	<outline>
		<component base="cap"/>
		<component base="cap" yOffset="250"/>
		<contour>
			<point x="0" y="100" type="line"/>
			<point x="0" y="350" type="line"/>
			<point x="200" y="350" type="line"/>
			<point x="200" y="100" type="line"/>
		</contour>
	</outline>
</glyph>
<glyph name="_46" format="2">
	<unicode hex="012E"/>
	<unicode hex="0078"/>
	<advance width="200"/>
	<outline>
		<component base="cap"/>
		<component base="cap" yOffset="260"/>
		<contour>
			<point x="0" y="100" type="line"/>
			<point x="0" y="360" type="line"/>
			<point x="200" y="360" type="line"/>
			<point x="200" y="100" type="line"/>
		</contour>
	</outline>
</glyph>
<glyph name="_47" format="2">
	<unicode hex="012F"/>
	<advance width="250"/>
	<outline>
		<component base="cap"/>
		<component base="cap" yOffset="220"/>
		<contour>
			<point x="0" y="125" type="line"/>
			<point x="0" y="345" type="line"/>
			<point x="250" y="345" type="line"/>
			<point x="250" y="125" type="line"/>
		</contour>
	</outline>
</glyph>
<glyph name="_48" format="2">
	<unicode hex="0130"/>
	<unicode hex="0079"/>
	<advance width="404"/>
	<outline>
		<component base="cap"/>
		<component base="cap" yOffset="76"/>
		<contour>
			<point x="0" y="202" type="line"/>
			<point x="0" y="278" type="line"/>
			<point x="404" y="278" type="line"/>
			<point x="404" y="202" type="line"/>
		</contour>
	</outline>
</glyph>
<glyph name="_49" format="2">
	<unicode hex="0131"/>
	<advance width="404"/>
	<outline>
		<component base="cap"/>
		<component base="cap" yOffset="86"/>
		<contour>
			<point x="0" y="202" type="line"/>
			<point x="0" y="288" type="line"/>
			<point x="404" y="288" type="line"/>
			<point x="404" y="202" type="line"/>
		</contour>
	</outline>
</glyph>
<glyph name="_50" format="2">
	<unicode hex="0132"/>
	<unicode hex="0035"/>
	<unicode hex="007A"/>
	<advance width="404"/>
	<outline>
		<component base="cap"/>
		<component base="cap" yOffset="96"/>
		<contour>
			<point x="0" y="202" type="line"/>
			<point x="0" y="298" type="line"/>
			<point x="404" y="298" type="line"/>
			<point x="404" y="202" type="line"/>
		</contour>
	</outline>
</glyph>
<glyph name="_51" format="2">
	<unicode hex="0133"/>
	<advance width="200"/>
	<outline>
		<component base="cap"/>
		<component base="cap" yOffset="310"/>
		<contour>
			<point x="0" y="100" type="line"/>
			<point x="0" y="410" type="line"/>
			<point x="200" y="410" type="line"/>
			<point x="200" y="100" type="line"/>
		</contour>
	</outline>
</glyph>
<glyph name="_52" format="2">
	<unicode hex="0134"/>
	<unicode hex="0041"/>
	<advance width="404"/>
	<outline>
		<component base="cap"/>
		<component base="cap" yOffset="116"/>
		<contour>
			<point x="0" y="202" type="line"/>
			<point x="0" y="318" type="line"/>
			<point x="404" y="318" type="line"/>
			<point x="404" y="202" type="line"/>
		</contour>
	</outline>
</glyph>
<glyph name="_53" format="2">
	<unicode hex="0135"/>
	<advance width="200"/>
	<outline>
		<component base="cap"/>
		<component base="cap" yOffset="330"/>
		<contour>
			<point x="0" y="100" type="line"/>
			<point x="0" y="430" type="line"/>
			<point x="200" y="430" type="line"/>
			<point x="200" y="100" type="line"/>
		</contour>
	</outline>
</glyph>
<glyph name="_54" format="2">
	<unicode hex="0136"/>
	<unicode hex="0042"/>
	<advance width="404"/>
	<outline>
		<component base="cap"/>
		<component base="cap" yOffset="136"/>
		<contour>
			<point x="0" y="202" type="line"/>
			<point x="0" y="338" type="line"/>
			<point x="404" y="338" type="line"/>
			<point x="404" y="202" type="line"/>
		</contour>
	</outline>
</glyph>
<glyph name="_55" format="2">
	<unicode hex="0137"/>
	<advance width="404"/>
	<outline>
		<component base="cap"/>
		<component base="cap" yOffset="146"/>
		<contour>
			<point x="0" y="202" type="line"/>
			<point x="0" y="348" type="line"/>
			<point x="404" y="348" type="line"/>
			<point x="404" y="202" type="line"/>
		</contour>
	</outline>
</glyph>
<glyph name="_56" format="2">
	<unicode hex="0138"/>
	<unicode hex="2585"/>
	<unicode hex="0043"/>
	<advance width="250"/>
	<outline>
		<component base="cap"/>
		<component base="cap" yOffset="310"/>
		<contour>
			<point x="0" y="125" type="line"/>
			<point x="0" y="435" type="line"/>
			<point x="250" y="435" type="line"/>
			<point x="250" y="125" type="line"/>
		</contour>
	</outline>
</glyph>
<glyph name="_57" format="2">
	<unicode hex="0139"/>
	<advance width="404"/>
	<outline>
		<component base="cap"/>
		<component base="cap" yOffset="166"/>
		<contour>
			<point x="0" y="202" type="line"/>
			<point x="0" y="368" type="line"/>
			<point x="404" y="368" type="line"/>
			<point x="404" y="202" type="line"/>
		</contour>
	</outline>
</glyph>
<glyph name="_58" format="2">
	<unicode hex="013A"/>
	<unicode hex="0044"/>
	<advance width="404"/>
	<outline>
		<component base="cap"/>
		<component base="cap" yOffset="176"/>
		<contour>
			<point x="0" y="202" type="line"/>
			<point x="0" y="378" type="line"/>
			<point x="404" y="378" type="line"/>
			<point x="404" y="202" type="line"/>
		</contour>
	</outline>
</glyph>
<glyph name="_59" format="2">
	<unicode hex="013B"/>
	<advance width="404"/>
	<outline>
		<component base="cap"/>
		<component base="cap" yOffset="186"/>
		<contour>
			<point x="0" y="202" type="line"/>
			<point x="0" y="388" type="line"/>
			<point x="404" y="388" type="line"/>
			<point x="404" y="202" type="line"/>
		</contour>
	</outline>
</glyph>
<glyph name="_60" format="2">
	<unicode hex="013C"/>
	<unicode hex="0036"/>
	<unicode hex="0045"/>
	<advance width="404"/>
	<outline>
		<component base="cap"/>
		<component base="cap" yOffset="196"/>
		<contour>
			<point x="0" y="202" type="line"/>
			<point x="0" y="398" type="line"/>
			<point x="404" y="398" type="line"/>
			<point x="404" y="202" type="line"/>
		</contour>
	</outline>
</glyph>
<glyph name="_61" format="2">
	<unicode hex="013D"/>
	<advance width="250"/>
	<outline>
		<component base="cap"/>
		<component base="cap" yOffset="360"/>
		<contour>
			<point x="0" y="125" type="line"/>
			<point x="0" y="485" type="line"/>
			<point x="250" y="485" type="line"/>
			<point x="250" y="125" type="line"/>
		</contour>
	</outline>
</glyph>
<glyph name="_62" format="2">
	<unicode hex="013E"/>
	<unicode hex="0046"/>
	<advance width="250"/>
	<outline>
		<component base="cap"/>
		<component base="cap" yOffset="370"/>
		<contour>
			<point x="0" y="125" type="line"/>
			<point x="0" y="495" type="line"/>
			<point x="250" y="495" type="line"/>
			<point x="250" y="125" type="line"/>
		</contour>
	</outline>
</glyph>
<glyph name="_63" format="2">
	<unicode hex="013F"/>
	<advance width="250"/>
	<outline>
		<component base="cap"/>
		<component base="cap" yOffset="380"/>
		<contour>
			<point x="0" y="125" type="line"/>
			<point x="0" y="505" type="line"/>
			<point x="250" y="505" type="line"/>
			<point x="250" y="125" type="line"/>
		</contour>
	</outline>
</glyph>
<glyph name="_64" format="2">
	<unicode hex="0140"/>
	<unicode hex="0047"/>
	<advance width="200"/>
	<outline>
		<component base="cap"/>
		<component base="cap" yOffset="440"/>
		<contour>
			<point x="0" y="100" type="line"/>
			<point x="0" y="540" type="line"/>
			<point x="200" y="540" type="line"/>
			<point x="200" y="100" type="line"/>
		</contour>
	</outline>
</glyph>
<glyph name="_65" format="2">
	<unicode hex="0141"/>
	<advance width="404"/>
	<outline>
		<component base="cap"/>
		<component base="cap" yOffset="246"/>
		<contour>
			<point x="0" y="202" type="line"/>
			<point x="0" y="448" type="line"/>
			<point x="404" y="448" type="line"/>
			<point x="404" y="202" type="line"/>
		</contour>
	</outline>
</glyph>
<glyph name="_66" format="2">
	<unicode hex="0142"/>
	<unicode hex="0048"/>
	<advance width="250"/>
	<outline>
		<component base="cap"/>
		<component base="cap" yOffset="410"/>
		<contour>
			<point x="0" y="125" type="line"/>
			<point x="0" y="535" type="line"/>
			<point x="250" y="535" type="line"/>
			<point x="250" y="125" type="line"/>
		</contour>
	</outline>
</glyph>
<glyph name="_67" format="2">
	<unicode hex="0143"/>
	<advance width="250"/>
	<outline>
		<component base="cap"/>
		<component base="cap" yOffset="420"/>
		<contour>
			<point x="0" y="125" type="line"/>
			<point x="0" y="545" type="line"/>
			<point x="250" y="545" type="line"/>
			<point x="250" y="125" type="line"/>
		</contour>
	</outline>
</glyph>
<glyph name="_68" format="2">
	<unicode hex="0144"/>
	<unicode hex="0049"/>
	<advance width="404"/>
	<outline>
		<component base="cap"/>
		<component base="cap" yOffset="276"/>
		<contour>
			<point x="0" y="202" type="line"/>
			<point x="0" y="478" type="line"/>
			<point x="404" y="478" type="line"/>
			<point x="404" y="202" type="line"/>
		</contour>
	</outline>
</glyph>
<glyph name="_69" format="2">
	<unicode hex="0145"/>
	<advance width="250"/>
	<outline>
		<component base="cap"/>
		<component base="cap" yOffset="440"/>
		<contour>
			<point x="0" y="125" type="line"/>
			<point x="0" y="565" type="line"/>
			<point x="250" y="565" type="line"/>
			<point x="250" y="125" type="line"/>
		</contour>
	</outline>
</glyph>
<glyph name="_70" format="2">
	<unicode hex="0146"/>
	<unicode hex="0037"/>
	<unicode hex="004A"/>
	<advance width="404"/>
	<outline>
		<component base="cap"/>
		<component base="cap" yOffset="296"/>
		<contour>
			<point x="0" y="202" type="line"/>
			<point x="0" y="498" type="line"/>
			<point x="404" y="498" type="line"/>
			<point x="404" y="202" type="line"/>
		</contour>
	</outline>
</glyph>
<glyph name="_71" format="2">
	<unicode hex="0147"/>
	<advance width="250"/>
	<outline>
		<component base="cap"/>
		<component base="cap" yOffset="460"/>
		<contour>
			<point x="0" y="125" type="line"/>
			<point x="0" y="585" type="line"/>
			<point x="250" y="585" type="line"/>
			<point x="250" y="125" type="line"/>
		</contour>
	</outline>
</glyph>
<glyph name="_72" format="2">
	<unicode hex="0148"/>
	<unicode hex="2586"/>
	<unicode hex="004B"/>
	<advance width="404"/>
	<outline>
		<component base="cap"/>
		<component base="cap" yOffset="316"/>
		<contour>
			<point x="0" y="202" type="line"/>
			<point x="0" y="518" type="line"/>
			<point x="404" y="518" type="line"/>
			<point x="404" y="202" type="line"/>
		</contour>
	</outline>
</glyph>
<glyph name="_73" format="2">
	<unicode hex="0149"/>
	<advance width="404"/>
	<outline>
		<component base="cap"/>
		<component base="cap" yOffset="326"/>
		<contour>
			<point x="0" y="202" type="line"/>
			<point x="0" y="528" type="line"/>
			<point x="404" y="528" type="line"/>
			<point x="404" y="202" type="line"/>
		</contour>
	</outline>
</glyph>
<glyph name="_74" format="2">
	<unicode hex="014A"/>
	<unicode hex="004C"/>
	<advance width="200"/>
	<outline>
		<component base="cap"/>
		<component base="cap" yOffset="540"/>
		<contour>
			<point x="0" y="100" type="line"/>
			<point x="0" y="640" type="line"/>
			<point x="200" y="640" type="line"/>
			<point x="200" y="100" type="line"/>
		</contour>
	</outline>
</glyph>
<glyph name="_75" format="2">
	<unicode hex="014B"/>
	<advance width="404"/>
	<outline>
		<component base="cap"/>
		<component base="cap" yOffset="346"/>
		<contour>
			<point x="0" y="202" type="line"/>
			<point x="0" y="548" type="line"/>
			<point x="404" y="548" type="line"/>
			<point x="404" y="202" type="line"/>
		</contour>
	</outline>
</glyph>
<glyph name="_76" format="2">
	<unicode hex="014C"/>
	<unicode hex="004D"/>
	<advance width="200"/>
	<outline>
		<component base="cap"/>
		<component base="cap" yOffset="560"/>
		<contour>
			<point x="0" y="100" type="line"/>
			<point x="0" y="660" type="line"/>
			<point x="200" y="660" type="line"/>
			<point x="200" y="100" type="line"/>
		</contour>
	</outline>
</glyph>
<glyph name="_77" format="2">
	<unicode hex="014D"/>
	<advance width="404"/>
	<outline>
		<component base="cap"/>
		<component base="cap" yOffset="366"/>
		<contour>
			<point x="0" y="202" type="line"/>
			<point x="0" y="568" type="line"/>
			<point x="404" y="568" type="line"/>
			<point x="404" y="202" type="line"/>
		</contour>
	</outline>
</glyph>
<glyph name="_78" format="2">
	<unicode hex="014E"/>
	<unicode hex="004E"/>
	<advance width="250"/>
	<outline>
		<component base="cap"/>
		<component base="cap" yOffset="530"/>
		<contour>
			<point x="0" y="125" type="line"/>
			<point x="0" y="655" type="line"/>
			<point x="250" y="655" type="line"/>
			<point x="250" y="125" type="line"/>
		</contour>
	</outline>
</glyph>
<glyph name="_79" format="2">
	<unicode hex="014F"/>
	<advance width="250"/>
	<outline>
		<component base="cap"/>
		<component base="cap" yOffset="540"/>
		<contour>
			<point x="0" y="125" type="line"/>
			<point x="0" y="665" type="line"/>
			<point x="250" y="665" type="line"/>
			<point x="250" y="125" type="line"/>
		</contour>
	</outline>
</glyph>
<glyph name="_80" format="2">
	<unicode hex="0150"/>
	<unicode hex="0038"/>
	<unicode hex="004F"/>
	<advance width="200"/>
	<outline>
		<component base="cap"/>
		<component base="cap" yOffset="600"/>
		<contour>
			<point x="0" y="100" type="line"/>
			<point x="0" y="700" type="line"/>
			<point x="200" y="700" type="line"/>
			<point x="200" y="100" type="line"/>
		</contour>
	</outline>
</glyph>
<glyph name="_81" format="2">
	<unicode hex="0151"/>
	<advance width="250"/>
	<outline>
		<component base="cap"/>
		<component base="cap" yOffset="560"/>
		<contour>
			<point x="0" y="125" type="line"/>
			<point x="0" y="685" type="line"/>
			<point x="250" y="685" type="line"/>
			<point x="250" y="125" type="line"/>
		</contour>
	</outline>
</glyph>
<glyph name="_83" format="2">
	<unicode hex="0153"/>
	<advance width="250"/>
	<outline>
		<component base="cap"/>
		<component base="cap" yOffset="580"/>
		<contour>
			<point x="0" y="125" type="line"/>
			<point x="0" y="705" type="line"/>
			<point x="250" y="705" type="line"/>
			<point x="250" y="125" type="line"/>
		</contour>
	</outline>
</glyph>
<glyph name="_84" format="2">
	<unicode hex="0154"/>
	<unicode hex="0051"/>
	<advance width="404"/>
	<outline>
		<component base="cap"/>
		<component base="cap" yOffset="436"/>
		<contour>
			<point x="0" y="202" type="line"/>
			<point x="0" y="638" type="line"/>
			<point x="404" y="638" type="line"/>
			<point x="404" y="202" type="line"/>
		</contour>
	</outline>
</glyph>
<glyph name="_86" format="2">
	<unicode hex="0156"/>
	<unicode hex="2587"/>
	<unicode hex="0052"/>
	<advance width="250"/>
	<outline>
		<component base="cap"/>
		<component base="cap" yOffset="610"/>
		<contour>
			<point x="0" y="125" type="line"/>
			<point x="0" y="735" type="line"/>
			<point x="250" y="735" type="line"/>
			<point x="250" y="125" type="line"/>
		</contour>
	</outline>
</glyph>
<glyph name="_87" format="2">
	<unicode hex="0157"/>
	<advance width="250"/>
	<outline>
		<component base="cap"/>
		<component base="cap" yOffset="620"/>
		<contour>
			<point x="0" y="125" type="line"/>
			<point x="0" y="745" type="line"/>
			<point x="250" y="745" type="line"/>
			<point x="250" y="125" type="line"/>
		</contour>
	</outline>
</glyph>
<glyph name="_88" format="2">
	<unicode hex="0158"/>
	<unicode hex="0053"/>
	<advance width="200"/>
	<outline>
		<component base="cap"/>
		<component base="cap" yOffset="680"/>
		<contour>
			<point x="0" y="100" type="line"/>
			<point x="0" y="780" type="line"/>
			<point x="200" y="780" type="line"/>
			<point x="200" y="100" type="line"/>
		</contour>
	</outline>
</glyph>
<glyph name="_89" format="2">
	<unicode hex="0159"/>
	<advance width="404"/>
	<outline>
		<component base="cap"/>
		<component base="cap" yOffset="486"/>
		<contour>
			<point x="0" y="202" type="line"/>
			<point x="0" y="688" type="line"/>
			<point x="404" y="688" type="line"/>
			<point x="404" y="202" type="line"/>
		</contour>
	</outline>
</glyph>
<glyph name="_90" format="2">
	<unicode hex="015A"/>
	<unicode hex="0039"/>
	<unicode hex="0054"/>
	<advance width="404"/>
	<outline>
		<component base="cap"/>
		<component base="cap" yOffset="496"/>
		<contour>
			<point x="0" y="202" type="line"/>
			<point x="0" y="698" type="line"/>
			<point x="404" y="698" type="line"/>
			<point x="404" y="202" type="line"/>
		</contour>
	</outline>
</glyph>
<glyph name="_91" format="2">
	<unicode hex="015B"/>
	<advance width="250"/>
	<outline>
		<component base="cap"/>
		<component base="cap" yOffset="660"/>
		<contour>
			<point x="0" y="125" type="line"/>
			<point x="0" y="785" type="line"/>
			<point x="250" y="785" type="line"/>
			<point x="250" y="125" type="line"/>
		</contour>
	</outline>
</glyph>
<glyph name="_92" format="2">
	<unicode hex="015C"/>
	<unicode hex="0055"/>
	<advance width="404"/>
	<outline>
		<component base="cap"/>
		<component base="cap" yOffset="516"/>
		<contour>
			<point x="0" y="202" type="line"/>
			<point x="0" y="718" type="line"/>
			<point x="404" y="718" type="line"/>
			<point x="404" y="202" type="line"/>
		</contour>
	</outline>
</glyph>
<glyph name="_93" format="2">
	<unicode hex="015D"/>
	<advance width="200"/>
	<outline>
		<component base="cap"/>
		<component base="cap" yOffset="730"/>
		<contour>
			<point x="0" y="100" type="line"/>
			<point x="0" y="830" type="line"/>
			<point x="200" y="830" type="line"/>
			<point x="200" y="100" type="line"/>
		</contour>
	</outline>
</glyph>
<glyph name="_94" format="2">
	<unicode hex="015E"/>
	<unicode hex="0056"/>
	<advance width="404"/>
	<outline>
		<component base="cap"/>
		<component base="cap" yOffset="536"/>
		<contour>
			<point x="0" y="202" type="line"/>
			<point x="0" y="738" type="line"/>
			<point x="404" y="738" type="line"/>
			<point x="404" y="202" type="line"/>
		</contour>
	</outline>
</glyph>
<glyph name="_95" format="2">
	<unicode hex="015F"/>
	<advance width="200"/>
	<outline>
		<component base="cap"/>
		<component base="cap" yOffset="750"/>
		<contour>
			<point x="0" y="100" type="line"/>
			<point x="0" y="850" type="line"/>
			<point x="200" y="850" type="line"/>
			<point x="200" y="100" type="line"/>
		</contour>
	</outline>
</glyph>
<glyph name="_96" format="2">
	<unicode hex="0160"/>
	<unicode hex="0057"/>
	<advance width="250"/>
	<outline>
		<component base="cap"/>
		<component base="cap" yOffset="710"/>
		<contour>
			<point x="0" y="125" type="line"/>
			<point x="0" y="835" type="line"/>
			<point x="250" y="835" type="line"/>
			<point x="250" y="125" type="line"/>
		</contour>
	</outline>
</glyph>
<glyph name="_97" format="2">
	<unicode hex="0161"/>
	<advance width="250"/>
	<outline>
		<component base="cap"/>
		<component base="cap" yOffset="720"/>
		<contour>
			<point x="0" y="125" type="line"/>
			<point x="0" y="845" type="line"/>
			<point x="250" y="845" type="line"/>
			<point x="250" y="125" type="line"/>
		</contour>
	</outline>
</glyph>
<glyph name="_98" format="2">
	<unicode hex="0162"/>
	<unicode hex="0058"/>
	<advance width="250"/>
	<outline>
		<component base="cap"/>
		<component base="cap" yOffset="730"/>
		<contour>
			<point x="0" y="125" type="line"/>
			<point x="0" y="855" type="line"/>
			<point x="250" y="855" type="line"/>
			<point x="250" y="125" type="line"/>
		</contour>
	</outline>
</glyph>
<glyph name="_99" format="2">
	<unicode hex="0163"/>
	<unicode hex="0059"/>
	<advance width="404"/>
	<outline>
		<component base="cap"/>
		<component base="cap" yOffset="586"/>
		<contour>
			<point x="0" y="202" type="line"/>
			<point x="0" y="788" type="line"/>
			<point x="404" y="788" type="line"/>
			<point x="404" y="202" type="line"/>
		</contour>
	</outline>
</glyph>
<glyph name="_100" format="2">
	<unicode hex="0164"/>
	<unicode hex="007C"/>
	<unicode hex="2588"/>
	<unicode hex="005A"/>
	<advance width="250"/>
	<outline>
		<component base="cap"/>
		<component base="cap" yOffset="750"/>
		<contour>
			<point x="0" y="125" type="line"/>
			<point x="0" y="875" type="line"/>
			<point x="250" y="875" type="line"/>
			<point x="250" y="125" type="line"/>
		</contour>
	</outline>
</glyph>
<glyph name="_101" format="2">
	<unicode hex="0165"/>
	<advance width="200"/>
	<outline>
		<component base="cap"/>
		<component base="cap" yOffset="810"/>
		<contour>
			<point x="0" y="100" type="line"/>
			<point x="0" y="910" type="line"/>
			<point x="200" y="910" type="line"/>
			<point x="200" y="100" type="line"/>
		</contour>
	</outline>
</glyph>
<glyph name="_102" format="2">
	<unicode hex="0166"/>
	<advance width="200"/>
	<outline>
		<component base="cap"/>
		<component base="cap" yOffset="820"/>
		<contour>
			<point x="0" y="100" type="line"/>
			<point x="0" y="920" type="line"/>
			<point x="200" y="920" type="line"/>
			<point x="200" y="100" type="line"/>
		</contour>
	</outline>
</glyph>
<glyph name="_103" format="2">
	<unicode hex="0167"/>
	<advance width="404"/>
	<outline>
		<component base="cap"/>
		<component base="cap" yOffset="626"/>
		<contour>
			<point x="0" y="202" type="line"/>
			<point x="0" y="828" type="line"/>
			<point x="404" y="828" type="line"/>
			<point x="404" y="202" type="line"/>
		</contour>
	</outline>
</glyph>
<glyph name="_104" format="2">
	<unicode hex="0168"/>
	<advance width="250"/>
	<outline>
		<component base="cap"/>
		<component base="cap" yOffset="790"/>
		<contour>
			<point x="0" y="125" type="line"/>
			<point x="0" y="915" type="line"/>
			<point x="250" y="915" type="line"/>
			<point x="250" y="125" type="line"/>
		</contour>
	</outline>
</glyph>
<glyph name="_105" format="2">
	<unicode hex="0169"/>
	<advance width="404"/>
	<outline>
		<component base="cap"/>
		<component base="cap" yOffset="646"/>
		<contour>
			<point x="0" y="202" type="line"/>
			<point x="0" y="848" type="line"/>
			<point x="404" y="848" type="line"/>
			<point x="404" y="202" type="line"/>
		</contour>
	</outline>
</glyph>
<glyph name="_106" format="2">
	<unicode hex="016A"/>
	<advance width="250"/>
	<outline>
		<component base="cap"/>
		<component base="cap" yOffset="810"/>
		<contour>
			<point x="0" y="125" type="line"/>
			<point x="0" y="935" type="line"/>
			<point x="250" y="935" type="line"/>
			<point x="250" y="125" type="line"/>
		</contour>
	</outline>
</glyph>
<glyph name="_108" format="2">
	<unicode hex="016C"/>
	<advance width="404"/>
	<outline>
		<component base="cap"/>
		<component base="cap" yOffset="676"/>
		<contour>
			<point x="0" y="202" type="line"/>
			<point x="0" y="878" type="line"/>
			<point x="404" y="878" type="line"/>
			<point x="404" y="202" type="line"/>
		</contour>
	</outline>
</glyph>
<glyph name="_109" format="2">
	<unicode hex="016D"/>
	<advance width="250"/>
	<outline>
		<component base="cap"/>
		<component base="cap" yOffset="840"/>
		<contour>
			<point x="0" y="125" type="line"/>
			<point x="0" y="965" type="line"/>
			<point x="250" y="965" type="line"/>
			<point x="250" y="125" type="line"/>
		</contour>
	</outline>
</glyph>
<glyph name="_110" format="2">
	<unicode hex="016E"/>
	<advance width="404"/>
	<outline>
		<component base="cap"/>
		<component base="cap" yOffset="696"/>
		<contour>
			<point x="0" y="202" type="line"/>
			<point x="0" y="898" type="line"/>
			<point x="404" y="898" type="line"/>
			<point x="404" y="202" type="line"/>
		</contour>
	</outline>
</glyph>
<glyph name="_113" format="2">
	<unicode hex="0171"/>
	<advance width="200"/>
	<outline>
		<component base="cap"/>
		<component base="cap" yOffset="930"/>
		<contour>
			<point x="0" y="100" type="line"/>
			<point x="0" y="1030" type="line"/>
			<point x="200" y="1030" type="line"/>
			<point x="200" y="100" type="line"/>
		</contour>
	</outline>
</glyph>
<glyph name="_114" format="2">
	<unicode hex="0172"/>
	<advance width="250"/>
	<outline>
		<component base="cap"/>
		<component base="cap" yOffset="890"/>
		<contour>
			<point x="0" y="125" type="line"/>
			<point x="0" y="1015" type="line"/>
			<point x="250" y="1015" type="line"/>
			<point x="250" y="125" type="line"/>
		</contour>
	</outline>
</glyph>
<glyph name="_115" format="2">
	<unicode hex="0173"/>
	<advance width="250"/>
	<outline>
		<component base="cap"/>
		<component base="cap" yOffset="900"/>
		<contour>
			<point x="0" y="125" type="line"/>
			<point x="0" y="1025" type="line"/>
			<point x="250" y="1025" type="line"/>
			<point x="250" y="125" type="line"/>
		</contour>
	</outline>
</glyph>
<glyph name="_116" format="2">
	<unicode hex="0174"/>
	<advance width="200"/>
	<outline>
		<component base="cap"/>
		<component base="cap" yOffset="960"/>
		<contour>
			<point x="0" y="100" type="line"/>
			<point x="0" y="1060" type="line"/>
			<point x="200" y="1060" type="line"/>
			<point x="200" y="100" type="line"/>
		</contour>
	</outline>
</glyph>
<glyph name="_117" format="2">
	<unicode hex="0175"/>
	<advance width="250"/>
	<outline>
		<component base="cap"/>
		<component base="cap" yOffset="920"/>
		<contour>
			<point x="0" y="125" type="line"/>
			<point x="0" y="1045" type="line"/>
			<point x="250" y="1045" type="line"/>
			<point x="250" y="125" type="line"/>
		</contour>
	</outline>
</glyph>
<glyph name="_119" format="2">
	<unicode hex="0177"/>
	<advance width="200"/>
	<outline>
		<component base="cap"/>
		<component base="cap" yOffset="990"/>
		<contour>
			<point x="0" y="100" type="line"/>
			<point x="0" y="1090" type="line"/>
			<point x="200" y="1090" type="line"/>
			<point x="200" y="100" type="line"/>
		</contour>
	</outline>
</glyph>
<glyph name="_120" format="2">
	<unicode hex="0178"/>
	<advance width="200"/>
	<outline>
		<component base="cap"/>
		<component base="cap" yOffset="1000"/>
		<contour>
			<point x="0" y="100" type="line"/>
			<point x="0" y="1100" type="line"/>
			<point x="200" y="1100" type="line"/>
			<point x="200" y="100" type="line"/>
		</contour>
	</outline>
</glyph>
<glyph name="_121" format="2">
	<unicode hex="0179"/>
	<advance width="404"/>
	<outline>
		<component base="cap"/>
		<component base="cap" yOffset="806"/>
		<contour>
			<point x="0" y="202" type="line"/>
			<point x="0" y="1008" type="line"/>
			<point x="404" y="1008" type="line"/>
			<point x="404" y="202" type="line"/>
		</contour>
	</outline>
</glyph>
<glyph name="_122" format="2">
	<unicode hex="017A"/>
	<advance width="250"/>
	<outline>
		<component base="cap"/>
		<component base="cap" yOffset="970"/>
		<contour>
			<point x="0" y="125" type="line"/>
			<point x="0" y="1095" type="line"/>
			<point x="250" y="1095" type="line"/>
			<point x="250" y="125" type="line"/>
		</contour>
	</outline>
</glyph>
<glyph name="_123" format="2">
	<unicode hex="017B"/>
	<advance width="250"/>
	<outline>
		<component base="cap"/>
		<component base="cap" yOffset="980"/>
		<contour>
			<point x="0" y="125" type="line"/>
			<point x="0" y="1105" type="line"/>
			<point x="250" y="1105" type="line"/>
			<point x="250" y="125" type="line"/>
		</contour>
	</outline>
</glyph>
<glyph name="_124" format="2">
	<unicode hex="017C"/>
	<advance width="250"/>
	<outline>
		<component base="cap"/>
		<component base="cap" yOffset="990"/>
		<contour>
			<point x="0" y="125" type="line"/>
			<point x="0" y="1115" type="line"/>
			<point x="250" y="1115" type="line"/>
			<point x="250" y="125" type="line"/>
		</contour>
	</outline>
</glyph>
<glyph name="_125" format="2">
	<unicode hex="017D"/>
	<advance width="250"/>
	<outline>
		<component base="cap"/>
		<component base="cap" yOffset="1000"/>
		<contour>
			<point x="0" y="125" type="line"/>
			<point x="0" y="1125" type="line"/>
			<point x="250" y="1125" type="line"/>
			<point x="250" y="125" type="line"/>
		</contour>
	</outline>
</glyph>
<glyph name="_126" format="2">
	<unicode hex="017E"/>
	<advance width="404"/>
	<outline>
		<component base="cap"/>
		<component base="cap" yOffset="856"/>
		<contour>
			<point x="0" y="202" type="line"/>
			<point x="0" y="1058" type="line"/>
			<point x="404" y="1058" type="line"/>
			<point x="404" y="202" type="line"/>
		</contour>
	</outline>
</glyph>
<glyph name="_127" format="2">
	<unicode hex="017F"/>
	<advance width="200"/>
	<outline>
		<component base="cap"/>
		<component base="cap" yOffset="1070"/>
		<contour>
			<point x="0" y="100" type="line"/>
			<point x="0" y="1170" type="line"/>
			<point x="200" y="1170" type="line"/>
			<point x="200" y="100" type="line"/>
		</contour>
	</outline>
</glyph>
<glyph name="_10.clip" format="2">
	<advance width="200"/>
	<outline>
		<contour>
			<point x="0" y="77.5"/>
			<point x="22.5" y="100"/>
			<point x="50" y="100" type="curve" smooth="yes"/>
			<point x="150" y="100" type="line"/>
			<point x="177.5" y="100"/>
			<point x="200" y="77.5"/>
			<point x="200" y="50" type="curve" smooth="yes"/>
			<point x="200" y="50" type="line"/>
			<point x="200" y="22.5"/>
			<point x="177.5" y="0"/>
			<point x="150" y="0" type="curve" smooth="yes"/>
			<point x="50" y="0" type="line"/>
			<point x="22.5" y="0"/>
			<point x="0" y="22.5"/>
			<point x="0" y="50" type="curve" smooth="yes"/>
			<point x="0" y="50" type="line"/>
		</contour>
	</outline>
</glyph>
<glyph name="_11.clip" format="2">
	<advance width="200"/>
	<outline>
		<contour>
			<point x="0" y="85.25"/>
			<point x="24.75" y="110"/>
			<point x="55" y="110" type="curve" smooth="yes"/>
			<point x="145" y="110" type="line"/>
			<point x="175.25" y="110"/>
			<point x="200" y="85.25"/>
			<point x="200" y="55" type="curve" smooth="yes"/>
			<point x="200" y="55" type="line"/>
			<point x="200" y="24.75"/>
			<point x="175.25" y="0"/>
			<point x="145" y="0" type="curve" smooth="yes"/>
			<point x="55" y="0" type="line"/>
			<point x="24.75" y="0"/>
			<point x="0" y="24.75"/>
			<point x="0" y="55" type="curve" smooth="yes"/>
			<point x="0" y="55" type="line"/>
		</contour>
	</outline>
</glyph>
<glyph name="_12.clip" format="2">
	<advance width="250"/>
	<outline>
		<contour>
			<point x="0" y="93"/>
			<point x="27" y="120"/>
			<point x="60" y="120" type="curve" smooth="yes"/>
			<point x="190" y="120" type="line"/>
			<point x="223" y="120"/>
			<point x="250" y="93"/>
			<point x="250" y="60" type="curve" smooth="yes"/>
			<point x="250" y="60" type="line"/>
			<point x="250" y="27"/>
			<point x="223" y="0"/>
			<point x="190" y="0" type="curve" smooth="yes"/>
			<point x="60" y="0" type="line"/>
			<point x="27" y="0"/>
			<point x="0" y="27"/>
			<point x="0" y="60" type="curve" smooth="yes"/>
			<point x="0" y="60" type="line"/>
		</contour>
	</outline>
</glyph>
<glyph name="_13.clip" format="2">
	<advance width="250"/>
	<outline>
		<contour>
			<point x="0" y="100.75"/>
			<point x="29.25" y="130"/>
			<point x="65" y="130" type="curve" smooth="yes"/>
			<point x="185" y="130" type="line"/>
			<point x="220.75" y="130"/>
			<point x="250" y="100.75"/>
			<point x="250" y="65" type="curve" smooth="yes"/>
			<point x="250" y="65" type="line"/>
			<point x="250" y="29.25"/>
			<point x="220.75" y="0"/>
			<point x="185" y="0" type="curve" smooth="yes"/>
			<point x="65" y="0" type="line"/>
			<point x="29.25" y="0"/>
			<point x="0" y="29.25"/>
			<point x="0" y="65" type="curve" smooth="yes"/>
			<point x="0" y="65" type="line"/>
		</contour>
	</outline>
</glyph>
<glyph name="_14.clip" format="2">
	<advance width="404"/>
	<outline>
		<contour>
			<point x="0" y="108.5"/>
			<point x="31.5" y="140"/>
			<point x="70" y="140" type="curve" smooth="yes"/>
			<point x="334" y="140" type="line"/>
			<point x="372.5" y="140"/>
			<point x="404" y="108.5"/>
			<point x="404" y="70" type="curve" smooth="yes"/>
			<point x="404" y="70" type="line"/>
			<point x="404" y="31.5"/>
			<point x="372.5" y="0"/>
			<point x="334" y="0" type="curve" smooth="yes"/>
			<point x="70" y="0" type="line"/>
			<point x="31.5" y="0"/>
			<point x="0" y="31.5"/>
			<point x="0" y="70" type="curve" smooth="yes"/>
			<point x="0" y="70" type="line"/>
		</contour>
	</outline>
</glyph>
<glyph name="_15.clip" format="2">
	<advance width="200"/>
	<outline>
		<contour>
			<point x="0" y="116.25"/>
			<point x="33.75" y="150"/>
			<point x="75" y="150" type="curve" smooth="yes"/>
			<point x="125" y="150" type="line"/>
			<point x="166.25" y="150"/>
			<point x="200" y="116.25"/>
			<point x="200" y="75" type="curve" smooth="yes"/>
			<point x="200" y="75" type="line"/>
			<point x="200" y="33.75"/>
			<point x="166.25" y="0"/>
			<point x="125" y="0" type="curve" smooth="yes"/>
			<point x="75" y="0" type="line"/>
			<point x="33.75" y="0"/>
			<point x="0" y="33.75"/>
			<point x="0" y="75" type="curve" smooth="yes"/>
			<point x="0" y="75" type="line"/>
		</contour>
	</outline>
</glyph>
<glyph name="_16.clip" format="2">
	<advance width="250"/>
	<outline>
		<contour>
			<point x="0" y="124"/>
			<point x="36" y="160"/>
			<point x="80" y="160" type="curve" smooth="yes"/>
			<point x="170" y="160" type="line"/>
			<point x="214" y="160"/>
			<point x="250" y="124"/>
			<point x="250" y="80" type="curve" smooth="yes"/>
			<point x="250" y="80" type="line"/>
			<point x="250" y="36"/>
			<point x="214" y="0"/>
			<point x="170" y="0" type="curve" smooth="yes"/>
			<point x="80" y="0" type="line"/>
			<point x="36" y="0"/>
			<point x="0" y="36"/>
			<point x="0" y="80" type="curve" smooth="yes"/>
			<point x="0" y="80" type="line"/>
		</contour>
	</outline>
</glyph>
<glyph name="_17.clip" format="2">
	<advance width="404"/>
	<outline>
		<contour>
			<point x="0" y="131.75"/>
			<point x="38.25" y="170"/>
			<point x="85" y="170" type="curve" smooth="yes"/>
			<point x="319" y="170" type="line"/>
			<point x="365.75" y="170"/>
			<point x="404" y="131.75"/>
			<point x="404" y="85" type="curve" smooth="yes"/>
			<point x="404" y="85" type="line"/>
			<point x="404" y="38.25"/>
			<point x="365.75" y="0"/>
			<point x="319" y="0" type="curve" smooth="yes"/>
			<point x="85" y="0" type="line"/>
			<point x="38.25" y="0"/>
			<point x="0" y="38.25"/>
			<point x="0" y="85" type="curve" smooth="yes"/>
			<point x="0" y="85" type="line"/>
		</contour>
	</outline>
</glyph>
<glyph name="_18.clip" format="2">
	<advance width="250"/>
	<outline>
		<contour>
			<point x="0" y="139.5"/>
			<point x="40.5" y="180"/>
			<point x="90" y="180" type="curve" smooth="yes"/>
			<point x="160" y="180" type="line"/>
			<point x="209.5" y="180"/>
			<point x="250" y="139.5"/>
			<point x="250" y="90" type="curve" smooth="yes"/>
			<point x="250" y="90" type="line"/>
			<point x="250" y="40.5"/>
			<point x="209.5" y="0"/>
			<point x="160" y="0" type="curve" smooth="yes"/>
			<point x="90" y="0" type="line"/>
			<point x="40.5" y="0"/>
			<point x="0" y="40.5"/>
			<point x="0" y="90" type="curve" smooth="yes"/>
			<point x="0" y="90" type="line"/>
		</contour>
	</outline>
</glyph>
<glyph name="_19.clip" format="2">
	<advance width="250"/>
	<outline>
		<contour>
			<point x="0" y="147.25"/>
			<point x="42.75" y="190"/>
			<point x="95" y="190" type="curve" smooth="yes"/>
			<point x="155" y="190" type="line"/>
			<point x="207.25" y="190"/>
			<point x="250" y="147.25"/>
			<point x="250" y="95" type="curve" smooth="yes"/>
			<point x="250" y="95" type="line"/>
			<point x="250" y="42.75"/>
			<point x="207.25" y="0"/>
			<point x="155" y="0" type="curve" smooth="yes"/>
			<point x="95" y="0" type="line"/>
			<point x="42.75" y="0"/>
			<point x="0" y="42.75"/>
			<point x="0" y="95" type="curve" smooth="yes"/>
			<point x="0" y="95" type="line"/>
		</contour>
	</outline>
</glyph>
<glyph name="_2.clip" format="2">
	<advance width="250"/>
	<outline>
		<contour>
			<point x="0" y="15.5"/>
			<point x="4.5" y="20"/>
			<point x="10" y="20" type="curve" smooth="yes"/>
			<point x="240" y="20" type="line"/>
			<point x="245.5" y="20"/>
			<point x="250" y="15.5"/>
			<point x="250" y="10" type="curve" smooth="yes"/>
			<point x="250" y="10" type="line"/>
			<point x="250" y="4.5"/>
			<point x="245.5" y="0"/>
			<point x="240" y="0" type="curve" smooth="yes"/>
			<point x="10" y="0" type="line"/>
			<point x="4.5" y="0"/>
			<point x="0" y="4.5"/>
			<point x="0" y="10" type="curve" smooth="yes"/>
			<point x="0" y="10" type="line"/>
		</contour>
	</outline>
</glyph>
<glyph name="_20.clip" format="2">
	<advance width="205"/>
	<outline>
		<contour>
			<point x="0" y="155"/>
			<point x="44" y="200"/>
			<point x="100" y="200" type="curve" smooth="yes"/>
			<point x="105" y="200" type="line"/>
			<point x="160" y="200"/>
			<point x="205" y="155"/>
			<point x="205" y="100" type="curve" smooth="yes"/>
			<point x="205" y="100" type="line"/>
			<point x="205" y="44"/>
			<point x="160" y="0"/>
			<point x="105" y="0" type="curve" smooth="yes"/>
			<point x="100" y="0" type="line"/>
			<point x="44" y="0"/>
			<point x="0" y="44"/>
			<point x="0" y="100" type="curve" smooth="yes"/>
			<point x="0" y="100" type="line"/>
		</contour>
	</outline>
</glyph>
<glyph name="_21.clip" format="2">
	<advance width="250"/>
	<outline>
		<contour>
			<point x="0" y="162.75"/>
			<point x="47.25" y="210"/>
			<point x="105" y="210" type="curve" smooth="yes"/>
			<point x="145" y="210" type="line"/>
			<point x="202.75" y="210"/>
			<point x="250" y="162.75"/>
			<point x="250" y="105" type="curve" smooth="yes"/>
			<point x="250" y="105" type="line"/>
			<point x="250" y="47.25"/>
			<point x="202.75" y="0"/>
			<point x="145" y="0" type="curve" smooth="yes"/>
			<point x="105" y="0" type="line"/>
			<point x="47.25" y="0"/>
			<point x="0" y="47.25"/>
			<point x="0" y="105" type="curve" smooth="yes"/>
			<point x="0" y="105" type="line"/>
		</contour>
	</outline>
</glyph>
<glyph name="_22.clip" format="2">
	<advance width="404"/>
	<outline>
		<contour>
			<point x="0" y="170.5"/>
			<point x="49.5" y="220"/>
			<point x="110" y="220" type="curve" smooth="yes"/>
			<point x="294" y="220" type="line"/>
			<point x="354.5" y="220"/>
			<point x="404" y="170.5"/>
			<point x="404" y="110" type="curve" smooth="yes"/>
			<point x="404" y="110" type="line"/>
			<point x="404" y="49.5"/>
			<point x="354.5" y="0"/>
			<point x="294" y="0" type="curve" smooth="yes"/>
			<point x="110" y="0" type="line"/>
			<point x="49.5" y="0"/>
			<point x="0" y="49.5"/>
			<point x="0" y="110" type="curve" smooth="yes"/>
			<point x="0" y="110" type="line"/>
		</contour>
	</outline>
</glyph>
<glyph name="_24.clip" format="2">
	<advance width="404"/>
	<outline>
		<contour>
			<point x="0" y="186"/>
			<point x="53" y="240"/>
			<point x="120" y="240" type="curve" smooth="yes"/>
			<point x="284" y="240" type="line"/>
			<point x="350" y="240"/>
			<point x="404" y="186"/>
			<point x="404" y="120" type="curve" smooth="yes"/>
			<point x="404" y="120" type="line"/>
			<point x="404" y="53"/>
			<point x="350" y="0"/>
			<point x="284" y="0" type="curve" smooth="yes"/>
			<point x="120" y="0" type="line"/>
			<point x="53" y="0"/>
			<point x="0" y="53"/>
			<point x="0" y="120" type="curve" smooth="yes"/>
			<point x="0" y="120" type="line"/>
		</contour>
	</outline>
</glyph>
<glyph name="_25.clip" format="2">
	<advance width="404"/>
	<outline>
		<contour>
			<point x="0" y="193.75"/>
			<point x="56.25" y="250"/>
			<point x="125" y="250" type="curve" smooth="yes"/>
			<point x="279" y="250" type="line"/>
			<point x="347.75" y="250"/>
			<point x="404" y="193.75"/>
			<point x="404" y="125" type="curve" smooth="yes"/>
			<point x="404" y="125" type="line"/>
			<point x="404" y="56.25"/>
			<point x="347.75" y="0"/>
			<point x="279" y="0" type="curve" smooth="yes"/>
			<point x="125" y="0" type="line"/>
			<point x="56.25" y="0"/>
			<point x="0" y="56.25"/>
			<point x="0" y="125" type="curve" smooth="yes"/>
			<point x="0" y="125" type="line"/>
		</contour>
	</outline>
</glyph>
<glyph name="_26.clip" format="2">
	<advance width="404"/>
	<outline>
		<contour>
			<point x="0" y="201.5"/>
			<point x="58.5" y="260"/>
			<point x="130" y="260" type="curve" smooth="yes"/>
			<point x="274" y="260" type="line"/>
			<point x="345.5" y="260"/>
			<point x="404" y="201.5"/>
			<point x="404" y="130" type="curve" smooth="yes"/>
			<point x="404" y="130" type="line"/>
			<point x="404" y="58.5"/>
			<point x="345.5" y="0"/>
			<point x="274" y="0" type="curve" smooth="yes"/>
			<point x="130" y="0" type="line"/>
			<point x="58.5" y="0"/>
			<point x="0" y="58.5"/>
			<point x="0" y="130" type="curve" smooth="yes"/>
			<point x="0" y="130" type="line"/>
		</contour>
	</outline>
</glyph>
<glyph name="_27.clip" format="2">
	<advance width="404"/>
	<outline>
		<contour>
			<point x="0" y="209.25"/>
			<point x="60.75" y="270"/>
			<point x="135" y="270" type="curve" smooth="yes"/>
			<point x="269" y="270" type="line"/>
			<point x="343.25" y="270"/>
			<point x="404" y="209.25"/>
			<point x="404" y="135" type="curve" smooth="yes"/>
			<point x="404" y="135" type="line"/>
			<point x="404" y="60.75"/>
			<point x="343.25" y="0"/>
			<point x="269" y="0" type="curve" smooth="yes"/>
			<point x="135" y="0" type="line"/>
			<point x="60.75" y="0"/>
			<point x="0" y="60.75"/>
			<point x="0" y="135" type="curve" smooth="yes"/>
			<point x="0" y="135" type="line"/>
		</contour>
	</outline>
</glyph>
<glyph name="_28.clip" format="2">
	<advance width="404"/>
	<outline>
		<contour>
			<point x="0" y="217"/>
			<point x="62" y="280"/>
			<point x="140" y="280" type="curve" smooth="yes"/>
			<point x="264" y="280" type="line"/>
			<point x="341" y="280"/>
			<point x="404" y="217"/>
			<point x="404" y="140" type="curve" smooth="yes"/>
			<point x="404" y="140" type="line"/>
			<point x="404" y="62"/>
			<point x="341" y="0"/>
			<point x="264" y="0" type="curve" smooth="yes"/>
			<point x="140" y="0" type="line"/>
			<point x="62" y="0"/>
			<point x="0" y="62"/>
			<point x="0" y="140" type="curve" smooth="yes"/>
			<point x="0" y="140" type="line"/>
		</contour>
	</outline>
</glyph>
<glyph name="_29.clip" format="2">
	<advance width="404"/>
	<outline>
		<contour>
			<point x="0" y="224.75"/>
			<point x="65.25" y="290"/>
			<point x="145" y="290" type="curve" smooth="yes"/>
			<point x="259" y="290" type="line"/>
			<point x="338.75" y="290"/>
			<point x="404" y="224.75"/>
			<point x="404" y="145" type="curve" smooth="yes"/>
			<point x="404" y="145" type="line"/>
			<point x="404" y="65.25"/>
			<point x="338.75" y="0"/>
			<point x="259" y="0" type="curve" smooth="yes"/>
			<point x="145" y="0" type="line"/>
			<point x="65.25" y="0"/>
			<point x="0" y="65.25"/>
			<point x="0" y="145" type="curve" smooth="yes"/>
			<point x="0" y="145" type="line"/>
		</contour>
	</outline>
</glyph>
<glyph name="_31.clip" format="2">
	<advance width="404"/>
	<outline>
		<contour>
			<point x="0" y="240.25"/>
			<point x="69.75" y="310"/>
			<point x="155" y="310" type="curve" smooth="yes"/>
			<point x="249" y="310" type="line"/>
			<point x="334.25" y="310"/>
			<point x="404" y="240.25"/>
			<point x="404" y="155" type="curve" smooth="yes"/>
			<point x="404" y="155" type="line"/>
			<point x="404" y="69.75"/>
			<point x="334.25" y="0"/>
			<point x="249" y="0" type="curve" smooth="yes"/>
			<point x="155" y="0" type="line"/>
			<point x="69.75" y="0"/>
			<point x="0" y="69.75"/>
			<point x="0" y="155" type="curve" smooth="yes"/>
			<point x="0" y="155" type="line"/>
		</contour>
	</outline>
</glyph>
<glyph name="_33.clip" format="2">
	<advance width="404"/>
	<outline>
		<contour>
			<point x="0" y="255.75"/>
			<point x="74.25" y="330"/>
			<point x="165" y="330" type="curve" smooth="yes"/>
			<point x="239" y="330" type="line"/>
			<point x="329.75" y="330"/>
			<point x="404" y="255.75"/>
			<point x="404" y="165" type="curve" smooth="yes"/>
			<point x="404" y="165" type="line"/>
			<point x="404" y="74.25"/>
			<point x="329.75" y="0"/>
			<point x="239" y="0" type="curve" smooth="yes"/>
			<point x="165" y="0" type="line"/>
			<point x="74.25" y="0"/>
			<point x="0" y="74.25"/>
			<point x="0" y="165" type="curve" smooth="yes"/>
			<point x="0" y="165" type="line"/>
		</contour>
	</outline>
</glyph>
<glyph name="_36.clip" format="2">
	<advance width="404"/>
	<outline>
		<contour>
			<point x="0" y="279"/>
			<point x="80" y="360"/>
			<point x="180" y="360" type="curve" smooth="yes"/>
			<point x="224" y="360" type="line"/>
			<point x="323" y="360"/>
			<point x="404" y="279"/>
			<point x="404" y="180" type="curve" smooth="yes"/>
			<point x="404" y="180" type="line"/>
			<point x="404" y="80"/>
			<point x="323" y="0"/>
			<point x="224" y="0" type="curve" smooth="yes"/>
			<point x="180" y="0" type="line"/>
			<point x="80" y="0"/>
			<point x="0" y="80"/>
			<point x="0" y="180" type="curve" smooth="yes"/>
			<point x="0" y="180" type="line"/>
		</contour>
	</outline>
</glyph>
<glyph name="_37.clip" format="2">
	<advance width="404"/>
	<outline>
		<contour>
			<point x="0" y="286.75"/>
			<point x="83.25" y="370"/>
			<point x="185" y="370" type="curve" smooth="yes"/>
			<point x="219" y="370" type="line"/>
			<point x="320.75" y="370"/>
			<point x="404" y="286.75"/>
			<point x="404" y="185" type="curve" smooth="yes"/>
			<point x="404" y="185" type="line"/>
			<point x="404" y="83.25"/>
			<point x="320.75" y="0"/>
			<point x="219" y="0" type="curve" smooth="yes"/>
			<point x="185" y="0" type="line"/>
			<point x="83.25" y="0"/>
			<point x="0" y="83.25"/>
			<point x="0" y="185" type="curve" smooth="yes"/>
			<point x="0" y="185" type="line"/>
		</contour>
	</outline>
</glyph>
<glyph name="_39.clip" format="2">
	<advance width="404"/>
	<outline>
		<contour>
			<point x="0" y="302.25"/>
			<point x="87.75" y="390"/>
			<point x="195" y="390" type="curve" smooth="yes"/>
			<point x="209" y="390" type="line"/>
			<point x="316.25" y="390"/>
			<point x="404" y="302.25"/>
			<point x="404" y="195" type="curve" smooth="yes"/>
			<point x="404" y="195" type="line"/>
			<point x="404" y="87.75"/>
			<point x="316.25" y="0"/>
			<point x="209" y="0" type="curve" smooth="yes"/>
			<point x="195" y="0" type="line"/>
			<point x="87.75" y="0"/>
			<point x="0" y="87.75"/>
			<point x="0" y="195" type="curve" smooth="yes"/>
			<point x="0" y="195" type="line"/>
		</contour>
	</outline>
</glyph>
<glyph name="_4.clip" format="2">
	<advance width="250"/>
	<outline>
		<contour>
			<point x="0" y="31"/>
			<point x="9" y="40"/>
			<point x="20" y="40" type="curve" smooth="yes"/>
			<point x="230" y="40" type="line"/>
			<point x="241" y="40"/>
			<point x="250" y="31"/>
			<point x="250" y="20" type="curve" smooth="yes"/>
			<point x="250" y="20" type="line"/>
			<point x="250" y="9"/>
			<point x="241" y="0"/>
			<point x="230" y="0" type="curve" smooth="yes"/>
			<point x="20" y="0" type="line"/>
			<point x="9" y="0"/>
			<point x="0" y="9"/>
			<point x="0" y="20" type="curve" smooth="yes"/>
			<point x="0" y="20" type="line"/>
		</contour>
	</outline>
</glyph>
<glyph name="_40.clip" format="2">
	<advance width="404"/>
	<outline>
		<contour>
			<point x="0" y="310"/>
			<point x="89" y="400"/>
			<point x="200" y="400" type="curve" smooth="yes"/>
			<point x="204" y="400" type="line"/>
			<point x="314" y="400"/>
			<point x="404" y="310"/>
			<point x="404" y="200" type="curve" smooth="yes"/>
			<point x="404" y="200" type="line"/>
			<point x="404" y="89"/>
			<point x="314" y="0"/>
			<point x="204" y="0" type="curve" smooth="yes"/>
			<point x="200" y="0" type="line"/>
			<point x="89" y="0"/>
			<point x="0" y="89"/>
			<point x="0" y="200" type="curve" smooth="yes"/>
			<point x="0" y="200" type="line"/>
		</contour>
	</outline>
</glyph>
<glyph name="_5.clip" format="2">
	<advance width="200"/>
	<outline>
		<contour>
			<point x="0" y="38.75"/>
			<point x="11.25" y="50"/>
			<point x="25" y="50" type="curve" smooth="yes"/>
			<point x="175" y="50" type="line"/>
			<point x="188.75" y="50"/>
			<point x="200" y="38.75"/>
			<point x="200" y="25" type="curve" smooth="yes"/>
			<point x="200" y="25" type="line"/>
			<point x="200" y="11.25"/>
			<point x="188.75" y="0"/>
			<point x="175" y="0" type="curve" smooth="yes"/>
			<point x="25" y="0" type="line"/>
			<point x="11.25" y="0"/>
			<point x="0" y="11.25"/>
			<point x="0" y="25" type="curve" smooth="yes"/>
			<point x="0" y="25" type="line"/>
		</contour>
	</outline>
</glyph>
<glyph name="_6.clip" format="2">
	<advance width="404"/>
	<outline>
		<contour>
			<point x="0" y="46.5"/>
			<point x="13.5" y="60"/>
			<point x="30" y="60" type="curve" smooth="yes"/>
			<point x="374" y="60" type="line"/>
			<point x="390.5" y="60"/>
			<point x="404" y="46.5"/>
			<point x="404" y="30" type="curve" smooth="yes"/>
			<point x="404" y="30" type="line"/>
			<point x="404" y="13.5"/>
			<point x="390.5" y="0"/>
			<point x="374" y="0" type="curve" smooth="yes"/>
			<point x="30" y="0" type="line"/>
			<point x="13.5" y="0"/>
			<point x="0" y="13.5"/>
			<point x="0" y="30" type="curve" smooth="yes"/>
			<point x="0" y="30" type="line"/>
		</contour>
	</outline>
</glyph>
<glyph name="_7.clip" format="2">
	<advance width="250"/>
	<outline>
		<contour>
			<point x="0" y="54.25"/>
			<point x="15.75" y="70"/>
			<point x="35" y="70" type="curve" smooth="yes"/>
			<point x="215" y="70" type="line"/>
			<point x="234.25" y="70"/>
			<point x="250" y="54.25"/>
			<point x="250" y="35" type="curve" smooth="yes"/>
			<point x="250" y="35" type="line"/>
			<point x="250" y="15.75"/>
			<point x="234.25" y="0"/>
			<point x="215" y="0" type="curve" smooth="yes"/>
			<point x="35" y="0" type="line"/>
			<point x="15.75" y="0"/>
			<point x="0" y="15.75"/>
			<point x="0" y="35" type="curve" smooth="yes"/>
			<point x="0" y="35" type="line"/>
		</contour>
	</outline>
</glyph>
<glyph name="_9.clip" format="2">
	<advance width="200"/>
	<outline>
		<contour>
			<point x="0" y="69.75"/>
			<point x="20.25" y="90"/>
			<point x="45" y="90" type="curve" smooth="yes"/>
			<point x="155" y="90" type="line"/>
			<point x="179.75" y="90"/>
			<point x="200" y="69.75"/>
			<point x="200" y="45" type="curve" smooth="yes"/>
			<point x="200" y="45" type="line"/>
			<point x="200" y="20.25"/>
			<point x="179.75" y="0"/>
			<point x="155" y="0" type="curve" smooth="yes"/>
			<point x="45" y="0" type="line"/>
			<point x="20.25" y="0"/>
			<point x="0" y="20.25"/>
			<point x="0" y="45" type="curve" smooth="yes"/>
			<point x="0" y="45" type="line"/>
		</contour>
	</outline>
</glyph>
<glyph name="cap" format="2">
	<outline>
		<contour>
			<point x="0" y="313.1"/>
			<point x="90.9" y="404"/>
			<point x="202" y="404" type="curve" smooth="yes"/>
			<point x="202" y="404" type="line"/>
			<point x="313.1" y="404"/>
			<point x="404" y="313.1"/>
			<point x="404" y="202" type="curve" smooth="yes"/>
			<point x="404" y="202" type="line"/>
			<point x="404" y="90.9"/>
			<point x="313.1" y="0"/>
			<point x="202" y="0" type="curve" smooth="yes"/>
			<point x="202" y="0" type="line"/>
			<point x="90.9" y="0"/>
			<point x="0" y="90.9"/>
			<point x="0" y="202" type="curve" smooth="yes"/>
			<point x="0" y="202" type="line"/>
		</contour>
	</outline>
</glyph>
